 <svg xmlns="http://www.w3.org/2000/svg" fill="#000000" viewBox="-2.4 -2.4 28.80 28.80" stroke="#000000">
                        <g id="SVGRepo_bgCarrier" stroke-width="0">
                            <rect x="-2.4" y="-2.4" width="28.80" height="28.80" rx="2.88" fill="#7eecc7" strokewidth="0">
                            </rect>
                        </g>
                        <g id="SVGRepo_tracerCarrier" stroke-linecap="round" stroke-linejoin="round"></g>
                        <g id="SVGRepo_iconCarrier">
                            <path
                                d="M19.6 21H4.4C3.1 21 2 19.9 2 18.6V14h2v4.2c0 .6.4.8 1 .8h14c.6 0 1-.4 1-1v-4h2v4.6c0 1.3-1.1 2.4-2.4 2.4z">
                            </path>
                            <path
                                d="M15.3 12.1L13.4 14v-4c0-2 0-4.9 2.4-7-3.4.6-5.1 3.2-5.2 7v4l-1.9-1.9L7 13l5 5 5-5-1.7-.9z">
                            </path>
                        </g>
                    </svg>