<svg xmlns="http://www.w3.org/2000/svg" x="0px" y="0px" width="100" height="100" viewBox="0 0 64 64">
<linearGradient id="1aQch5dFFz7LOiLgh-R2Ka_aaH3Zhglcmj2_gr1" x1="32" x2="32" y1="13" y2="50.723" gradientUnits="userSpaceOnUse"><stop offset="0" stop-color="#6dc7ff"></stop><stop offset="1" stop-color="#e6abff"></stop></linearGradient><path fill="url(#1aQch5dFFz7LOiLgh-R2Ka_aaH3Zhglcmj2_gr1)" d="M51,35.308c-1.728,0.953-4.398,2.167-8,3.071l0-10.777c0-0.201-0.019-0.397-0.03-0.596	l0.267-0.065c3.314-0.809,5.896-1.867,7.763-2.806V35.308z M20.996,40.441l-0.232-0.057c-3.315-0.809-5.898-1.867-7.765-2.807V45	c0,2.685,1.764,4.957,4.195,5.723c0.913-1.006,2.165-2.156,3.8-3.161v0L20.996,40.441z M13,24.133v11.175	c1.727,0.953,4.397,2.167,7.997,3.07l0.002-10.779c0-0.201,0.019-0.396,0.03-0.594l-0.279-0.068	C17.442,26.128,14.864,25.071,13,24.133z M42.763,24.996c3.725-0.909,6.471-2.158,8.237-3.133V19c0-3.314-2.686-6-6-6H19	c-3.314,0-6,2.686-6,6v2.863c1.765,0.974,4.506,2.221,8.225,3.13l0.092,0.023c1.164-4.826,5.499-8.416,10.683-8.416	c5.184,0,9.518,3.59,10.683,8.416L42.763,24.996z M43.237,40.384L43,40.442l0,4.758c2.574,1.591,4.293,3.355,5.386,4.751	C49.964,48.87,51,47.057,51,45v-7.423C49.134,38.517,46.551,39.575,43.237,40.384z"></path><linearGradient id="1aQch5dFFz7LOiLgh-R2Kb_aaH3Zhglcmj2_gr2" x1="35.5" x2="35.5" y1="16.6" y2="54" gradientUnits="userSpaceOnUse"><stop offset="0" stop-color="#6dc7ff"></stop><stop offset="1" stop-color="#e6abff"></stop></linearGradient><path fill="url(#1aQch5dFFz7LOiLgh-R2Kb_aaH3Zhglcmj2_gr2)" d="M49.6,51.8c0,0-1.57-3.63-6.6-6.6V27.6c0-0.55-0.04-1.08-0.12-1.61	c-0.35-2.39-1.47-4.53-3.1-6.17c-2-1.99-4.74-3.22-7.78-3.22c-5.03,0-9.28,3.39-10.57,8c-0.05,0.13-0.09,0.27-0.12,0.41	c-0.08,0.32-0.14,0.65-0.19,0.98C21.04,26.52,21,27.05,21,27.6v19.9c1.73-1.04,3.92-1.93,6.6-2.3v-2.99l8.8,5.99V54h8.8	c1.82,0,3.4-0.05,4.8-1L49.6,51.8z M36.4,33.65c0,3.949-3.201,7.15-7.15,7.15s-7.15-3.201-7.15-7.15v-6.6	c0-3.949,3.201-7.15,7.15-7.15s7.15,3.201,7.15,7.15V33.65z"></path><linearGradient id="1aQch5dFFz7LOiLgh-R2Kc_aaH3Zhglcmj2_gr3" x1="32" x2="32" y1="9" y2="55" gradientUnits="userSpaceOnUse"><stop offset="0" stop-color="#1a6dff"></stop><stop offset="1" stop-color="#c822ff"></stop></linearGradient><path fill="url(#1aQch5dFFz7LOiLgh-R2Kc_aaH3Zhglcmj2_gr3)" d="M27.111,28.857c0-0.023-0.01-0.042-0.013-0.063c0.149,0.138,0.379,0.135,0.521-0.011	c0.145-0.148,0.142-0.386-0.007-0.53c-0.592-0.577-1.096-0.761-1.824-0.761c-0.771,0.017-1.328,0.35-1.876,0.718	c-0.172,0.116-0.218,0.349-0.103,0.521c0.072,0.108,0.191,0.166,0.312,0.166c0.072,0,0.146-0.021,0.209-0.063	c0.47-0.316,0.905-0.578,1.474-0.591c0.188-0.008,0.34,0.012,0.484,0.047c-0.232,0.087-0.399,0.306-0.399,0.568	c0,0.338,0.274,0.611,0.611,0.611S27.111,29.195,27.111,28.857z M30.451,35.53c-0.552,0.337-1.203,0.522-1.823,0.494	c-0.592-0.012-1.164-0.185-1.613-0.485c-0.172-0.115-0.405-0.069-0.521,0.103s-0.069,0.405,0.103,0.521	c0.566,0.38,1.282,0.598,2.016,0.612c0.028,0.001,0.056,0.001,0.084,0.001c0.756,0,1.495-0.208,2.146-0.604	c0.177-0.108,0.232-0.339,0.125-0.516C30.859,35.478,30.628,35.422,30.451,35.53z M31.702,27.492	c-0.767,0.001-1.231,0.184-1.824,0.761c-0.148,0.145-0.151,0.382-0.007,0.53c0.145,0.147,0.382,0.152,0.53,0.007	c0.448-0.437,0.736-0.572,1.285-0.548c0.136,0.003,0.264,0.022,0.387,0.051c-0.222,0.091-0.379,0.309-0.379,0.564	c0,0.338,0.274,0.611,0.611,0.611c0.338,0,0.611-0.274,0.611-0.611c0-0.074-0.018-0.142-0.042-0.208	c0.095,0.059,0.189,0.119,0.285,0.183c0.063,0.043,0.137,0.063,0.209,0.063c0.12,0,0.239-0.058,0.312-0.166	c0.115-0.172,0.069-0.404-0.103-0.521C33.03,27.842,32.474,27.509,31.702,27.492z M28.639,34.357c0.96,0,1.833-1.222,1.833-1.222	s-1.1,0.306-1.833,0.306c-0.77,0-1.833-0.306-1.833-0.306S27.619,34.357,28.639,34.357z M45.2,9H18.8C13.396,9,9,13.396,9,18.8v26.4	c0,3.983,2.393,7.413,5.814,8.944c0.005,0.003,0.008,0.008,0.012,0.01c0.015,0.008,0.03,0.01,0.045,0.018	C16.075,54.701,17.403,55,18.8,55h26.4c5.403,0,9.8-4.396,9.8-9.8V18.8C55,13.396,50.604,9,45.2,9z M16.843,52.742	c1.354-1.853,4.838-5.701,10.895-6.551c0.494-0.069,0.861-0.491,0.861-0.99v-3.433c0.215,0.017,0.431,0.033,0.65,0.033	c2.455,0,4.655-1.096,6.15-2.819V53H18.8C18.123,53,17.469,52.904,16.843,52.742z M35.4,33.65c0,3.391-2.759,6.149-6.15,6.149	s-6.15-2.759-6.15-6.149V27.05c0-3.391,2.759-6.149,6.15-6.149s6.15,2.759,6.15,6.149V33.65z M21.997,37.349	c0.954,1.863,2.602,3.309,4.603,4v3.002c-1.74,0.326-3.263,0.871-4.604,1.525L21.997,37.349z M37.4,53V34.2	c0-0.039-0.018-0.072-0.022-0.11c0.008-0.146,0.022-0.291,0.022-0.439V27.05c0-4.493-3.656-8.149-8.15-8.149	c-1.108,0-2.164,0.224-3.127,0.626c1.652-1.206,3.679-1.927,5.876-1.927C37.514,17.6,42,22.086,42,27.601v17.6	c0,0.347,0.18,0.668,0.475,0.851c3.636,2.248,5.487,4.872,6.218,6.114C47.64,52.694,46.456,53,45.2,53H37.4z M53,45.2	c0,2.324-1.027,4.408-2.645,5.838C49.5,49.607,47.588,46.986,44,44.65v-17.05C44,20.983,38.616,15.6,31.999,15.6	c-6.615,0-11.999,5.383-12.001,11.999l-0.003,19.406c-2.663,1.75-4.296,3.826-5.061,4.961C12.588,50.619,11,48.094,11,45.2V18.8	c0-4.301,3.499-7.8,7.8-7.8h26.4c4.301,0,7.8,3.499,7.8,7.8V45.2z"></path>
</svg>
